<svg width="320" height="140" viewBox="0 0 320 140" fill="none" xmlns="http://www.w3.org/2000/svg">
<g clip-path="url(#clip0_1_2)">
<rect width="320" height="140" fill="#0D1117"/>
<path d="M30.5511 85V32.6364H41.6222V55.7244H42.3125L61.1562 32.6364H74.4261L54.9943 56.0824L74.6562 85H61.4119L47.0682 63.4716L41.6222 70.1193V85H30.5511Z" fill="#00C4B4"/>
<path d="M106.531 68.2784V45.7273H117.423V85H106.966V77.8665H106.557C105.67 80.1676 104.196 82.017 102.134 83.4148C100.088 84.8125 97.5909 85.5114 94.642 85.5114C92.017 85.5114 89.7074 84.9148 87.7131 83.7216C85.7188 82.5284 84.1591 80.8324 83.0341 78.6335C81.9261 76.4347 81.3636 73.8011 81.3466 70.733V45.7273H92.2386V68.7898C92.2557 71.108 92.8778 72.9403 94.1051 74.2869C95.3324 75.6335 96.9773 76.3068 99.0398 76.3068C100.352 76.3068 101.58 76.0085 102.722 75.4119C103.864 74.7983 104.784 73.8949 105.483 72.7017C106.199 71.5085 106.548 70.0341 106.531 68.2784ZM140.607 85.6392C137.624 85.6392 134.923 84.8722 132.502 83.3381C130.099 81.7869 128.19 79.5114 126.775 76.5114C125.377 73.4943 124.678 69.7955 124.678 65.4148C124.678 60.9148 125.403 57.1733 126.852 54.1903C128.3 51.1903 130.227 48.9489 132.63 47.4659C135.05 45.9659 137.701 45.2159 140.582 45.2159C142.781 45.2159 144.613 45.5909 146.079 46.3409C147.562 47.0739 148.755 47.9943 149.658 49.1023C150.579 50.1932 151.278 51.267 151.755 52.3239H152.087V32.6364H162.954V85H152.215V78.7102H151.755C151.244 79.8011 150.519 80.8835 149.582 81.9574C148.661 83.0142 147.46 83.892 145.977 84.5909C144.511 85.2898 142.721 85.6392 140.607 85.6392ZM144.059 76.9716C145.815 76.9716 147.298 76.4943 148.508 75.5398C149.735 74.5682 150.673 73.2131 151.32 71.4744C151.985 69.7358 152.317 67.6989 152.317 65.3636C152.317 63.0284 151.994 61 151.346 59.2784C150.698 57.5568 149.761 56.2273 148.533 55.2898C147.306 54.3523 145.815 53.8835 144.059 53.8835C142.269 53.8835 140.761 54.3693 139.533 55.3409C138.306 56.3125 137.377 57.6591 136.746 59.3807C136.116 61.1023 135.8 63.0966 135.8 65.3636C135.8 67.6477 136.116 69.6676 136.746 71.4233C137.394 73.1619 138.323 74.5256 139.533 75.5142C140.761 76.4858 142.269 76.9716 144.059 76.9716ZM183.108 85.7415C180.602 85.7415 178.369 85.3068 176.409 84.4375C174.449 83.5511 172.898 82.2472 171.756 80.5256C170.631 78.7869 170.068 76.6222 170.068 74.0312C170.068 71.8494 170.469 70.017 171.27 68.5341C172.071 67.0511 173.162 65.858 174.543 64.9545C175.923 64.0511 177.491 63.3693 179.247 62.9091C181.02 62.4489 182.878 62.125 184.821 61.9375C187.105 61.6989 188.946 61.4773 190.344 61.2727C191.741 61.0511 192.756 60.7273 193.386 60.3011C194.017 59.875 194.332 59.2443 194.332 58.4091V58.2557C194.332 56.6364 193.821 55.3835 192.798 54.4972C191.793 53.6108 190.361 53.1676 188.503 53.1676C186.543 53.1676 184.983 53.6023 183.824 54.4716C182.665 55.3239 181.898 56.3977 181.523 57.6932L171.449 56.875C171.96 54.4886 172.966 52.4261 174.466 50.6875C175.966 48.9318 177.901 47.5852 180.27 46.6477C182.656 45.6932 185.418 45.2159 188.554 45.2159C190.736 45.2159 192.824 45.4716 194.818 45.983C196.83 46.4943 198.611 47.2869 200.162 48.3608C201.73 49.4347 202.966 50.8153 203.869 52.5028C204.773 54.1733 205.224 56.1761 205.224 58.5114V85H194.895V79.554H194.588C193.957 80.7812 193.114 81.8636 192.057 82.8011C191 83.7216 189.73 84.446 188.247 84.9744C186.764 85.4858 185.051 85.7415 183.108 85.7415ZM186.227 78.2244C187.83 78.2244 189.244 77.9091 190.472 77.2784C191.699 76.6307 192.662 75.7614 193.361 74.6705C194.06 73.5795 194.409 72.3437 194.409 70.9631V66.7955C194.068 67.017 193.599 67.2216 193.003 67.4091C192.423 67.5795 191.767 67.7415 191.034 67.8949C190.301 68.0312 189.568 68.1591 188.835 68.2784C188.102 68.3807 187.438 68.4744 186.841 68.5597C185.563 68.7472 184.446 69.0455 183.491 69.4545C182.537 69.8636 181.795 70.4176 181.267 71.1165C180.739 71.7983 180.474 72.6506 180.474 73.6733C180.474 75.1562 181.011 76.2898 182.085 77.0739C183.176 77.8409 184.557 78.2244 186.227 78.2244ZM213.47 85V78.5057L232.697 54.7017V54.4205H214.135V45.7273H245.814V52.8097L227.763 76.0256V76.3068H246.479V85H213.47ZM271.427 85.767C267.455 85.767 264.021 84.9233 261.123 83.2358C258.242 81.5312 256.018 79.1619 254.45 76.1278C252.881 73.0767 252.097 69.5398 252.097 65.517C252.097 61.4602 252.881 57.9148 254.45 54.8807C256.018 51.8295 258.242 49.4602 261.123 47.7727C264.021 46.0682 267.455 45.2159 271.427 45.2159C275.398 45.2159 278.825 46.0682 281.705 47.7727C284.603 49.4602 286.836 51.8295 288.404 54.8807C289.972 57.9148 290.756 61.4602 290.756 65.517C290.756 69.5398 289.972 73.0767 288.404 76.1278C286.836 79.1619 284.603 81.5312 281.705 83.2358C278.825 84.9233 275.398 85.767 271.427 85.767ZM271.478 77.3295C273.285 77.3295 274.793 76.8182 276.004 75.7955C277.214 74.7557 278.126 73.3409 278.739 71.5511C279.37 69.7614 279.685 67.7244 279.685 65.4403C279.685 63.1562 279.37 61.1193 278.739 59.3295C278.126 57.5398 277.214 56.125 276.004 55.0852C274.793 54.0455 273.285 53.5256 271.478 53.5256C269.654 53.5256 268.12 54.0455 266.876 55.0852C265.648 56.125 264.719 57.5398 264.089 59.3295C263.475 61.1193 263.168 63.1562 263.168 65.4403C263.168 67.7244 263.475 69.7614 264.089 71.5511C264.719 73.3409 265.648 74.7557 266.876 75.7955C268.12 76.8182 269.654 77.3295 271.478 77.3295Z" fill="white"/>
<path d="M35.3438 105C35.2969 104.604 35.1068 104.297 34.7734 104.078C34.4401 103.859 34.0313 103.75 33.5469 103.75C33.1927 103.75 32.8828 103.807 32.6172 103.922C32.3542 104.036 32.1484 104.194 32 104.395C31.8542 104.595 31.7813 104.823 31.7813 105.078C31.7813 105.292 31.832 105.475 31.9336 105.629C32.0378 105.78 32.1706 105.906 32.332 106.008C32.4935 106.107 32.6628 106.189 32.8398 106.254C33.0169 106.316 33.1797 106.367 33.3281 106.406L34.1406 106.625C34.349 106.68 34.5807 106.755 34.8359 106.852C35.0938 106.948 35.3398 107.079 35.5742 107.246C35.8112 107.41 36.0065 107.621 36.1602 107.879C36.3138 108.137 36.3906 108.453 36.3906 108.828C36.3906 109.26 36.2773 109.651 36.0508 110C35.8268 110.349 35.4987 110.626 35.0664 110.832C34.6367 111.038 34.1146 111.141 33.5 111.141C32.9271 111.141 32.431 111.048 32.0117 110.863C31.5951 110.678 31.2669 110.421 31.0273 110.09C30.7904 109.759 30.6563 109.375 30.625 108.938H31.625C31.651 109.24 31.7526 109.49 31.9297 109.687C32.1094 109.883 32.3359 110.029 32.6094 110.125C32.8854 110.219 33.1823 110.266 33.5 110.266C33.8698 110.266 34.2018 110.206 34.4961 110.086C34.7904 109.964 35.0234 109.794 35.1953 109.578C35.3672 109.359 35.4531 109.104 35.4531 108.812C35.4531 108.547 35.3789 108.331 35.2305 108.164C35.082 107.997 34.8867 107.862 34.6445 107.758C34.4023 107.654 34.1406 107.562 33.8594 107.484L32.875 107.203C32.25 107.023 31.7552 106.767 31.3906 106.434C31.026 106.1 30.8438 105.664 30.8438 105.125C30.8438 104.677 30.9648 104.286 31.207 103.953C31.4518 103.617 31.7799 103.357 32.1914 103.172C32.6055 102.984 33.0677 102.891 33.5781 102.891C34.0938 102.891 34.5521 102.983 34.9531 103.168C35.3542 103.35 35.6719 103.6 35.9062 103.918C36.1432 104.236 36.2682 104.596 36.2813 105H35.3438ZM45.8334 107C45.8334 107.844 45.6811 108.573 45.3764 109.187C45.0717 109.802 44.6537 110.276 44.1225 110.609C43.5912 110.943 42.9844 111.109 42.3021 111.109C41.6199 111.109 41.0131 110.943 40.4818 110.609C39.9506 110.276 39.5326 109.802 39.2279 109.187C38.9232 108.573 38.7709 107.844 38.7709 107C38.7709 106.156 38.9232 105.427 39.2279 104.812C39.5326 104.198 39.9506 103.724 40.4818 103.391C41.0131 103.057 41.6199 102.891 42.3021 102.891C42.9844 102.891 43.5912 103.057 44.1225 103.391C44.6537 103.724 45.0717 104.198 45.3764 104.812C45.6811 105.427 45.8334 106.156 45.8334 107ZM44.8959 107C44.8959 106.307 44.78 105.723 44.5482 105.246C44.3191 104.77 44.0079 104.409 43.6146 104.164C43.224 103.919 42.7865 103.797 42.3021 103.797C41.8178 103.797 41.379 103.919 40.9857 104.164C40.5951 104.409 40.2839 104.77 40.0521 105.246C39.823 105.723 39.7084 106.307 39.7084 107C39.7084 107.693 39.823 108.277 40.0521 108.754C40.2839 109.23 40.5951 109.591 40.9857 109.836C41.379 110.081 41.8178 110.203 42.3021 110.203C42.7865 110.203 43.224 110.081 43.6146 109.836C44.0079 109.591 44.3191 109.23 44.5482 108.754C44.78 108.277 44.8959 107.693 44.8959 107ZM48.5623 111V103H53.3592V103.859H49.5311V106.562H52.9998V107.422H49.5311V111H48.5623ZM55.6809 103.859V103H61.6809V103.859H59.1652V111H58.1965V103.859H55.6809ZM65.7291 111L63.5416 103H64.526L66.1979 109.516H66.276L67.9791 103H69.0729L70.776 109.516H70.8541L72.526 103H73.5104L71.3229 111H70.3229L68.5572 104.625H68.4947L66.7291 111H65.7291ZM75.5225 111H74.5068L77.4443 103H78.4443L81.3818 111H80.3662L77.9756 104.266H77.9131L75.5225 111ZM75.8975 107.875H79.9912V108.734H75.8975V107.875ZM83.7279 111V103H86.4311C87.0561 103 87.5691 103.107 87.9701 103.32C88.3712 103.531 88.668 103.822 88.8607 104.191C89.0534 104.561 89.1498 104.982 89.1498 105.453C89.1498 105.924 89.0534 106.342 88.8607 106.707C88.668 107.072 88.3725 107.358 87.974 107.566C87.5756 107.772 87.0665 107.875 86.4467 107.875H84.2592V107H86.4154C86.8425 107 87.1863 106.937 87.4467 106.812C87.7097 106.687 87.8998 106.51 88.017 106.281C88.1368 106.049 88.1967 105.773 88.1967 105.453C88.1967 105.133 88.1368 104.853 88.017 104.613C87.8972 104.374 87.7058 104.189 87.4428 104.059C87.1798 103.926 86.8321 103.859 86.3998 103.859H84.6967V111H83.7279ZM87.4936 107.406L89.4623 111H88.3373L86.3998 107.406H87.4936ZM91.8641 111V103H96.6922V103.859H92.8328V106.562H96.4422V107.422H92.8328V110.141H96.7547V111H91.8641ZM103.732 111V103H108.56V103.859H104.701V106.562H108.31V107.422H104.701V110.141H108.623V111H103.732ZM117.75 103V111H116.813L112.453 104.719H112.375V111H111.406V103H112.344L116.719 109.297H116.797V103H117.75ZM126.257 105.5C126.171 105.237 126.058 105.001 125.917 104.793C125.779 104.582 125.614 104.402 125.421 104.254C125.231 104.105 125.015 103.992 124.773 103.914C124.531 103.836 124.265 103.797 123.976 103.797C123.502 103.797 123.071 103.919 122.683 104.164C122.295 104.409 121.986 104.77 121.757 105.246C121.528 105.723 121.413 106.307 121.413 107C121.413 107.693 121.529 108.277 121.761 108.754C121.993 109.23 122.307 109.591 122.703 109.836C123.098 110.081 123.544 110.203 124.038 110.203C124.497 110.203 124.9 110.105 125.249 109.91C125.601 109.712 125.874 109.434 126.07 109.074C126.268 108.712 126.367 108.286 126.367 107.797L126.663 107.859H124.257V107H127.304V107.859C127.304 108.518 127.163 109.091 126.882 109.578C126.604 110.065 126.218 110.443 125.726 110.711C125.236 110.977 124.674 111.109 124.038 111.109C123.33 111.109 122.708 110.943 122.171 110.609C121.637 110.276 121.221 109.802 120.921 109.187C120.624 108.573 120.476 107.844 120.476 107C120.476 106.367 120.561 105.798 120.73 105.293C120.902 104.785 121.144 104.353 121.456 103.996C121.769 103.639 122.139 103.366 122.566 103.176C122.993 102.986 123.463 102.891 123.976 102.891C124.398 102.891 124.791 102.954 125.156 103.082C125.523 103.207 125.85 103.385 126.136 103.617C126.425 103.846 126.666 104.121 126.859 104.441C127.051 104.759 127.184 105.112 127.257 105.5H126.257ZM131.032 103V111H130.063V103H131.032ZM140.418 103V111H139.481L135.121 104.719H135.043V111H134.074V103H135.012L139.387 109.297H139.465V103H140.418ZM143.457 111V103H148.285V103.859H144.425V106.562H148.035V107.422H144.425V110.141H148.347V111H143.457ZM151.131 111V103H155.959V103.859H152.1V106.562H155.709V107.422H152.1V110.141H156.021V111H151.131ZM158.805 111V103H161.508C162.133 103 162.646 103.107 163.047 103.32C163.448 103.531 163.745 103.822 163.938 104.191C164.131 104.561 164.227 104.982 164.227 105.453C164.227 105.924 164.131 106.342 163.938 106.707C163.745 107.072 163.45 107.358 163.051 107.566C162.653 107.772 162.144 107.875 161.524 107.875H159.336V107H161.493C161.92 107 162.263 106.937 162.524 106.812C162.787 106.687 162.977 106.51 163.094 106.281C163.214 106.049 163.274 105.773 163.274 105.453C163.274 105.133 163.214 104.853 163.094 104.613C162.974 104.374 162.783 104.189 162.52 104.059C162.257 103.926 161.909 103.859 161.477 103.859H159.774V111H158.805ZM162.571 107.406L164.539 111H163.414L161.477 107.406H162.571ZM167.91 103V111H166.941V103H167.91ZM177.296 103V111H176.359L171.999 104.719H171.921V111H170.952V103H171.89L176.265 109.297H176.343V103H177.296ZM185.803 105.5C185.717 105.237 185.604 105.001 185.463 104.793C185.325 104.582 185.16 104.402 184.967 104.254C184.777 104.105 184.561 103.992 184.319 103.914C184.077 103.836 183.811 103.797 183.522 103.797C183.048 103.797 182.617 103.919 182.229 104.164C181.841 104.409 181.532 104.77 181.303 105.246C181.074 105.723 180.96 106.307 180.96 107C180.96 107.693 181.075 108.277 181.307 108.754C181.539 109.23 181.853 109.591 182.249 109.836C182.644 110.081 183.09 110.203 183.585 110.203C184.043 110.203 184.447 110.105 184.796 109.91C185.147 109.712 185.421 109.434 185.616 109.074C185.814 108.712 185.913 108.286 185.913 107.797L186.21 107.859H183.803V107H186.85V107.859C186.85 108.518 186.71 109.091 186.428 109.578C186.15 110.065 185.764 110.443 185.272 110.711C184.782 110.977 184.22 111.109 183.585 111.109C182.876 111.109 182.254 110.943 181.717 110.609C181.184 110.276 180.767 109.802 180.467 109.187C180.171 108.573 180.022 107.844 180.022 107C180.022 106.367 180.107 105.798 180.276 105.293C180.448 104.785 180.69 104.353 181.003 103.996C181.315 103.639 181.685 103.366 182.112 103.176C182.539 102.986 183.009 102.891 183.522 102.891C183.944 102.891 184.337 102.954 184.702 103.082C185.069 103.207 185.396 103.385 185.682 103.617C185.971 103.846 186.212 104.121 186.405 104.441C186.598 104.759 186.73 105.112 186.803 105.5H185.803Z" fill="#3A5A6A"/>
</g>
<defs>
<clipPath id="clip0_1_2">
<rect width="320" height="140" fill="white"/>
</clipPath>
</defs>
</svg>
